<mxfile host="drawio-plugin" modified="2023-10-02T16:51:57.587Z" agent="5.0 (X11; Linux x86_64) AppleWebKit/537.36 (KHTML, like Gecko) Chrome/111.0.0.0 Safari/537.36" etag="2gkQVA-_vtKGF2YHZiG6" version="20.5.3" type="embed"><diagram id="23iRSUPoRavnBvh4doch" name="solution"><mxGraphModel dx="1085" dy="184" grid="1" gridSize="10" guides="1" tooltips="1" connect="1" arrows="1" fold="1" page="1" pageScale="1" pageWidth="827" pageHeight="1169" math="0" shadow="0"><root><mxCell id="0"/><mxCell id="1" parent="0"/><mxCell id="11" style="edgeStyle=orthogonalEdgeStyle;rounded=0;orthogonalLoop=1;jettySize=auto;html=1;entryX=0;entryY=0.5;entryDx=0;entryDy=0;entryPerimeter=0;exitX=0.995;exitY=0.17;exitDx=0;exitDy=0;exitPerimeter=0;" edge="1" parent="1" source="7" target="10"><mxGeometry relative="1" as="geometry"><mxPoint x="40" y="285" as="sourcePoint"/></mxGeometry></mxCell><mxCell id="12" value="aggregate&lt;br&gt;create_intent_dataset()" style="edgeLabel;html=1;align=center;verticalAlign=middle;resizable=0;points=[];" vertex="1" connectable="0" parent="11"><mxGeometry x="-0.3015" y="1" relative="1" as="geometry"><mxPoint x="24" y="-17" as="offset"/></mxGeometry></mxCell><mxCell id="7" value="" style="rounded=1;whiteSpace=wrap;html=1;dashed=1;" vertex="1" parent="1"><mxGeometry x="-180" y="170" width="170" height="680" as="geometry"/></mxCell><mxCell id="2" value="troubleshooting.json" style="shape=cylinder3;whiteSpace=wrap;html=1;boundedLbl=1;backgroundOutline=1;size=15;" vertex="1" parent="1"><mxGeometry x="-155" y="270" width="120" height="80" as="geometry"/></mxCell><mxCell id="3" value="contact-support.json" style="shape=cylinder3;whiteSpace=wrap;html=1;boundedLbl=1;backgroundOutline=1;size=15;" vertex="1" parent="1"><mxGeometry x="-155" y="380" width="120" height="80" as="geometry"/></mxCell><mxCell id="4" value="edit-information.json" style="shape=cylinder3;whiteSpace=wrap;html=1;boundedLbl=1;backgroundOutline=1;size=15;" vertex="1" parent="1"><mxGeometry x="-155" y="490" width="120" height="80" as="geometry"/></mxCell><mxCell id="5" value="greeting.json" style="shape=cylinder3;whiteSpace=wrap;html=1;boundedLbl=1;backgroundOutline=1;size=15;" vertex="1" parent="1"><mxGeometry x="-155" y="610" width="120" height="80" as="geometry"/></mxCell><mxCell id="6" value="create-ticket.json" style="shape=cylinder3;whiteSpace=wrap;html=1;boundedLbl=1;backgroundOutline=1;size=15;" vertex="1" parent="1"><mxGeometry x="-155" y="730" width="120" height="80" as="geometry"/></mxCell><mxCell id="8" value="" style="shape=image;verticalLabelPosition=bottom;labelBackgroundColor=default;verticalAlign=top;aspect=fixed;imageAspect=0;image=https://logodownload.org/wp-content/uploads/2023/04/chatgpt-logo-0.png;" vertex="1" parent="1"><mxGeometry x="-130" y="190" width="70" height="70" as="geometry"/></mxCell><mxCell id="30" style="edgeStyle=orthogonalEdgeStyle;rounded=0;orthogonalLoop=1;jettySize=auto;html=1;exitX=1;exitY=0.5;exitDx=0;exitDy=0;exitPerimeter=0;entryX=0.001;entryY=0.329;entryDx=0;entryDy=0;entryPerimeter=0;" edge="1" parent="1" source="10" target="13"><mxGeometry relative="1" as="geometry"/></mxCell><mxCell id="10" value="intent-dataset.json" style="shape=cylinder3;whiteSpace=wrap;html=1;boundedLbl=1;backgroundOutline=1;size=15;" vertex="1" parent="1"><mxGeometry x="170" y="220" width="120" height="130" as="geometry"/></mxCell><mxCell id="33" style="edgeStyle=orthogonalEdgeStyle;rounded=0;orthogonalLoop=1;jettySize=auto;html=1;entryX=0.5;entryY=0;entryDx=0;entryDy=0;entryPerimeter=0;" edge="1" parent="1" source="13" target="32"><mxGeometry relative="1" as="geometry"/></mxCell><mxCell id="13" value="" style="rounded=1;whiteSpace=wrap;html=1;align=left;" vertex="1" parent="1"><mxGeometry x="390" y="150" width="200" height="410" as="geometry"/></mxCell><mxCell id="14" value="DATA PREPARATION" style="text;html=1;align=center;verticalAlign=middle;resizable=0;points=[];autosize=1;strokeColor=none;fillColor=none;" vertex="1" parent="1"><mxGeometry x="420" y="190" width="140" height="30" as="geometry"/></mxCell><mxCell id="15" value="FEATURE ENGINEERING" style="text;html=1;align=center;verticalAlign=middle;resizable=0;points=[];autosize=1;strokeColor=none;fillColor=none;" vertex="1" parent="1"><mxGeometry x="405" y="270" width="170" height="30" as="geometry"/></mxCell><mxCell id="16" value="MACHINE LEARNING" style="text;html=1;align=center;verticalAlign=middle;resizable=0;points=[];autosize=1;strokeColor=none;fillColor=none;" vertex="1" parent="1"><mxGeometry x="420" y="350" width="140" height="30" as="geometry"/></mxCell><mxCell id="17" value="VALIDATION" style="text;html=1;align=center;verticalAlign=middle;resizable=0;points=[];autosize=1;strokeColor=none;fillColor=none;" vertex="1" parent="1"><mxGeometry x="445" y="420" width="90" height="30" as="geometry"/></mxCell><mxCell id="19" value="&lt;h1&gt;+&lt;/h1&gt;" style="text;html=1;align=center;verticalAlign=middle;resizable=0;points=[];autosize=1;strokeColor=none;fillColor=none;" vertex="1" parent="1"><mxGeometry x="470" y="290" width="40" height="70" as="geometry"/></mxCell><mxCell id="21" value="&lt;h1&gt;+&lt;/h1&gt;" style="text;html=1;align=center;verticalAlign=middle;resizable=0;points=[];autosize=1;strokeColor=none;fillColor=none;" vertex="1" parent="1"><mxGeometry x="470" y="370" width="40" height="70" as="geometry"/></mxCell><mxCell id="22" value="&lt;h1&gt;+&lt;/h1&gt;" style="text;html=1;align=center;verticalAlign=middle;resizable=0;points=[];autosize=1;strokeColor=none;fillColor=none;" vertex="1" parent="1"><mxGeometry x="470" y="210" width="40" height="70" as="geometry"/></mxCell><mxCell id="24" value="" style="shape=image;verticalLabelPosition=bottom;labelBackgroundColor=default;verticalAlign=top;aspect=fixed;imageAspect=0;image=https://upload.wikimedia.org/wikipedia/commons/thumb/0/05/Scikit_learn_logo_small.svg/1024px-Scikit_learn_logo_small.svg.png;" vertex="1" parent="1"><mxGeometry x="510" y="448.65" width="55" height="29.62" as="geometry"/></mxCell><mxCell id="26" value="" style="shape=image;verticalLabelPosition=bottom;labelBackgroundColor=default;verticalAlign=top;aspect=fixed;imageAspect=0;image=https://upload.wikimedia.org/wikipedia/commons/thumb/e/ed/Pandas_logo.svg/1280px-Pandas_logo.svg.png;" vertex="1" parent="1"><mxGeometry x="390" y="450" width="70" height="28.27" as="geometry"/></mxCell><mxCell id="27" value="" style="shape=image;verticalLabelPosition=bottom;labelBackgroundColor=default;verticalAlign=top;aspect=fixed;imageAspect=0;image=https://user-images.githubusercontent.com/67586773/105040771-43887300-5a88-11eb-9f01-bee100b9ef22.png;" vertex="1" parent="1"><mxGeometry x="405" y="478.27" width="70" height="70" as="geometry"/></mxCell><mxCell id="35" style="edgeStyle=orthogonalEdgeStyle;rounded=0;orthogonalLoop=1;jettySize=auto;html=1;exitX=1;exitY=0.5;exitDx=0;exitDy=0;exitPerimeter=0;entryX=0.003;entryY=0.127;entryDx=0;entryDy=0;entryPerimeter=0;" edge="1" parent="1" source="32" target="34"><mxGeometry relative="1" as="geometry"/></mxCell><mxCell id="32" value="Artifact Storage&lt;br&gt;(ml/models)" style="shape=cylinder3;whiteSpace=wrap;html=1;boundedLbl=1;backgroundOutline=1;size=15;" vertex="1" parent="1"><mxGeometry x="430" y="650" width="120" height="90" as="geometry"/></mxCell><mxCell id="51" style="edgeStyle=orthogonalEdgeStyle;rounded=0;orthogonalLoop=1;jettySize=auto;html=1;entryX=0;entryY=0.5;entryDx=0;entryDy=0;" edge="1" parent="1" source="34" target="50"><mxGeometry relative="1" as="geometry"/></mxCell><mxCell id="34" value="" style="rounded=1;whiteSpace=wrap;html=1;align=left;" vertex="1" parent="1"><mxGeometry x="780" y="170" width="200" height="170" as="geometry"/></mxCell><mxCell id="36" style="edgeStyle=orthogonalEdgeStyle;rounded=0;orthogonalLoop=1;jettySize=auto;html=1;exitX=0.5;exitY=1;exitDx=0;exitDy=0;" edge="1" parent="1" source="34" target="34"><mxGeometry relative="1" as="geometry"/></mxCell><mxCell id="38" value="INTENT API" style="text;html=1;align=center;verticalAlign=middle;resizable=0;points=[];autosize=1;strokeColor=none;fillColor=none;" vertex="1" parent="1"><mxGeometry x="835" y="190" width="90" height="30" as="geometry"/></mxCell><mxCell id="46" value="" style="shape=image;verticalLabelPosition=bottom;labelBackgroundColor=default;verticalAlign=top;aspect=fixed;imageAspect=0;image=https://seeklogo.com/images/D/docker-logo-6D6F987702-seeklogo.com.png;" vertex="1" parent="1"><mxGeometry x="800" y="240" width="85.71" height="72" as="geometry"/></mxCell><mxCell id="47" value="" style="shape=image;verticalLabelPosition=bottom;labelBackgroundColor=default;verticalAlign=top;aspect=fixed;imageAspect=0;image=https://seeklogo.com/images/F/fastapi-logo-541BAA112F-seeklogo.com.png;" vertex="1" parent="1"><mxGeometry x="900" y="240" width="60" height="60" as="geometry"/></mxCell><mxCell id="50" value="" style="shape=image;verticalLabelPosition=bottom;labelBackgroundColor=default;verticalAlign=top;aspect=fixed;imageAspect=0;image=https://cdn-icons-png.flaticon.com/512/81/81043.png;" vertex="1" parent="1"><mxGeometry x="1110" y="179" width="152" height="152" as="geometry"/></mxCell><mxCell id="52" value="" style="shape=image;verticalLabelPosition=bottom;labelBackgroundColor=default;verticalAlign=top;aspect=fixed;imageAspect=0;image=https://mlflow.org/docs/latest/_static/MLflow-logo-final-black.png;" vertex="1" parent="1"><mxGeometry x="483.32" y="515" width="81.68" height="30" as="geometry"/></mxCell></root></mxGraphModel></diagram></mxfile>